<?xml version="1.0" encoding="UTF-8" standalone="no"?>
<svg
   xmlns:osb="http://www.openswatchbook.org/uri/2009/osb"
   xmlns:dc="http://purl.org/dc/elements/1.1/"
   xmlns:cc="http://creativecommons.org/ns#"
   xmlns:rdf="http://www.w3.org/1999/02/22-rdf-syntax-ns#"
   xmlns:svg="http://www.w3.org/2000/svg"
   xmlns="http://www.w3.org/2000/svg"
   xmlns:xlink="http://www.w3.org/1999/xlink"
   xmlns:sodipodi="http://sodipodi.sourceforge.net/DTD/sodipodi-0.dtd"
   xmlns:inkscape="http://www.inkscape.org/namespaces/inkscape"
   width="212.62346mm"
   height="72.129539mm"
   viewBox="0 0 212.62346 72.129539"
   version="1.1"
   id="svg839"
   inkscape:version="1.0.2 (e86c870879, 2021-01-15)"
   sodipodi:docname="dctmd_logo.svg">
  <defs
     id="defs833">
    <linearGradient
       inkscape:collect="always"
       id="linearGradient3971">
      <stop
         style="stop-color:#f5c2ed;stop-opacity:1"
         offset="0"
         id="stop3967" />
      <stop
         style="stop-color:#344a9a;stop-opacity:1"
         offset="1"
         id="stop3969" />
    </linearGradient>
    <linearGradient
       id="linearGradient3848"
       osb:paint="solid">
      <stop
         style="stop-color:#f2f2f2;stop-opacity:1;"
         offset="0"
         id="stop3846" />
    </linearGradient>
    <linearGradient
       inkscape:collect="always"
       xlink:href="#linearGradient3971"
       id="linearGradient3973"
       x1="373.8082"
       y1="20.332703"
       x2="382.81131"
       y2="-2.5891998"
       gradientUnits="userSpaceOnUse"
       gradientTransform="translate(-355.1597,54.739787)" />
  </defs>
  <sodipodi:namedview
     id="base"
     pagecolor="#ffffff"
     bordercolor="#666666"
     borderopacity="1.0"
     inkscape:pageopacity="0.0"
     inkscape:pageshadow="2"
     inkscape:zoom="1"
     inkscape:cx="231.34462"
     inkscape:cy="139.07972"
     inkscape:document-units="mm"
     inkscape:current-layer="layer1"
     inkscape:document-rotation="0"
     showgrid="false"
     inkscape:window-width="1920"
     inkscape:window-height="1025"
     inkscape:window-x="1920"
     inkscape:window-y="31"
     inkscape:window-maximized="1"
     fit-margin-left="1"
     fit-margin-top="1"
     fit-margin-bottom="1"
     fit-margin-right="1" />
  <metadata
     id="metadata836">
    <rdf:RDF>
      <cc:Work
         rdf:about="">
        <dc:format>image/svg+xml</dc:format>
        <dc:type
           rdf:resource="http://purl.org/dc/dcmitype/StillImage" />
        <dc:title></dc:title>
      </cc:Work>
    </rdf:RDF>
  </metadata>
  <g
     inkscape:label="Layer 1"
     inkscape:groupmode="layer"
     id="layer1"
     transform="translate(-0.93601,-26.158563)">
    <g
       id="g875">
      <path
         style="fill:#f5c2ed;fill-opacity:1;stroke:none;stroke-width:0.264583px;stroke-linecap:butt;stroke-linejoin:miter;stroke-opacity:1"
         d="m 8.58783,59.232487 c 1.89617,16.18476 7.80309,31.00408 13.36278,33.14744 5.55969,2.14336 9.83568,-34.6651 16.04327,-32.47506 6.20759,2.19004 11.08737,18.60658 16.73543,16.46215 5.64806,-2.14443 8.85852,-17.13453 8.85852,-17.13453 z"
         id="path1801-1"
         sodipodi:nodetypes="czzzcc" />
      <path
         id="rect1803-8"
         style="fill:#f5c2ed;fill-opacity:0.6;stroke:none;stroke-width:0.2;stroke-linecap:round;stroke-linejoin:round;stroke-miterlimit:4;stroke-dasharray:none;stroke-opacity:1"
         d="m 7.31498,45.314167 61.72197,0.54181 -5.44912,13.37651 h -55 z"
         sodipodi:nodetypes="ccccc" />
      <path
         id="rect1806-7"
         style="fill:#f5c2ed;fill-opacity:0.2;stroke:none;stroke-width:0.2;stroke-linecap:round;stroke-linejoin:round;stroke-miterlimit:4;stroke-dasharray:none;stroke-opacity:1"
         d="m 6.91869,30.912857 h 62.11826 v 14.94312 L 7.315,45.314167 Z"
         sodipodi:nodetypes="ccccc" />
      <path
         style="fill:url(#linearGradient3973);fill-opacity:1;stroke:none;stroke-width:0.806618;stroke-linecap:butt;stroke-linejoin:miter;stroke-miterlimit:4;stroke-dasharray:none;stroke-opacity:1"
         d="m 18.64851,75.072489 c 0.0976,-17.97015 19.72024,-63.977192 62.26473,-22.552836 l 3.47088,-3.962671 3.99203,14.507699 -14.31792,-3.068428 2.6401,-3.333558 C 38.64181,18.200589 24.94261,59.706052 22.45615,78.630404 Z"
         id="path1614-2-7-3-0-9"
         sodipodi:nodetypes="cccccccc" />
      <path
         style="fill:#344a9a;fill-opacity:1;stroke:none;stroke-width:0.656541;stroke-linecap:butt;stroke-linejoin:miter;stroke-miterlimit:4;stroke-dasharray:none;stroke-opacity:1"
         d="M 69.50076,52.24531 C 67.128,63.56739 64.45547,74.592977 57.74199,79.684717 c -1.74369,1.32248 -4.69883,1.14249 -6.56541,0 -5.39179,-3.30019 -10.20563,-14.86853 -12.28345,-15.64465 -0.50881,-0.19007 -0.78798,-0.2785 -1.57783,-0.0322 -4.07149,1.26975 -6.182,25.95055 -12.40036,32.09024 -1.55729,1.5376 -5.11066,1.63497 -6.56541,0 C 1.55538,77.223337 2.11346,26.730127 1.93601,27.161307 h 6.56541 c 0,0 1.87164,50.68514 11.72268,57.64024 0.70105,0.49497 1.82506,1.07852 2.60563,0.64168 4.62836,-2.59021 3.30656,-22.97888 11.93333,-28.73757 1.59728,-1.06625 4.0405,-1.18667 5.7614,0 5.02776,3.46696 7.19512,12.27685 11.43461,13.85545 0.49326,0.18367 0.84609,0.1669 1.21312,-0.003 5.34996,-2.47404 9.02426,-13.348161 11.15917,-22.064251 z M 66.13183,39.050055 c 1.26403,-8.13663 1.45828,-11.888718 1.45828,-11.888718 l 6.56541,1.1e-4 c 0,0 -1.1272,6.978635 -2.33459,15.351815 z"
         id="path1673-9-6-2"
         sodipodi:nodetypes="cssssssccssasssccccccc" />
      <path
         id="path4220-3"
         style="font-style:normal;font-variant:normal;font-weight:bold;font-stretch:normal;font-size:35.2778px;line-height:1.25;font-family:'DejaVu Sans';-inkscape-font-specification:'DejaVu Sans Bold';letter-spacing:0px;word-spacing:0px;fill:#344a9a;fill-opacity:1;stroke-width:0.999999"
         d="m 439.63281,92.703125 -14.49023,1.951172 -6.9668,32.740233 c -1.39325,-5.85167 -6.82611,-7.52344 -11.42383,-7.52344 -23.40669,0 -35.66797,29.95474 -35.66797,48.76368 0,16.30108 8.77782,22.43164 17.83399,22.43164 8.91681,0 16.85864,-6.13072 21.17773,-13.6543 0.69661,9.61346 5.01617,13.6543 11.14649,13.6543 4.94929,0 11.80551,-1.64952 19.02929,-14.52344 5.63372,17.17273 24.93274,15.97826 34.47657,16.33398 11.59256,0.43208 35.59375,-2.51757 35.59375,-2.51757 h 24.6875 v -78.25586 h 32.22656 V 93.158203 h -89.58398 v 18.945317 h 32.29101 l 0.002,66.19921 c -2.99076,1.68525 -13.30697,6.80231 -27.75,6.17969 -21.8934,0.2609 -28.23872,-9.45255 -28.39648,-18.22656 -0.19427,-10.80358 8.66317,-39.69727 21.75976,-39.69727 4.17978,0 6.13086,3.06505 6.13086,6.26953 0,3.06517 -1.81117,7.52406 -4.17968,9.05665 0.97527,1.81123 2.36845,2.92578 4.59765,2.92578 4.73707,0 7.38282,-5.29416 7.38282,-11.70313 0,-9.05615 -5.15481,-13.23633 -14.62891,-13.23633 -26.88983,0 -36.08398,33.15922 -36.08398,48.76368 -3.67798,7.45756 -7.79707,11.84375 -11.70313,11.84375 -3.48314,0 -4.32031,-3.06505 -4.32031,-6.26954 0,-2.2292 0.27921,-4.59762 0.69726,-6.26953 z m -29.8164,34.832035 c 4.31909,0 6.54882,3.20306 6.96679,6.1289 l -6.6875,31.62696 c -1.81126,8.49885 -9.47448,15.1875 -15.32617,15.1875 -5.29436,0 -8.77734,-3.20424 -8.77734,-13.79297 0,-13.93255 8.49842,-39.15039 23.82422,-39.15039 z"
         transform="matrix(0.26458333,0,0,0.26458333,0.93601,26.158563)"
         sodipodi:nodetypes="cccssscscsccccccccccssscssscssccsccsss" />
      <path
         d="m 154.4502,50.806894 h 8.44049 l 5.85666,13.763165 5.89112,-13.763165 h 8.42326 v 25.717655 h -6.27007 V 57.714315 l -5.92557,13.866518 h -4.20302 L 160.7375,57.714315 v 18.810234 h -6.2873 z"
         style="font-style:normal;font-variant:normal;font-weight:bold;font-stretch:normal;font-size:35.2778px;line-height:1.25;font-family:'DejaVu Sans';-inkscape-font-specification:'DejaVu Sans Bold';letter-spacing:0px;word-spacing:0px;fill:#344a9a;fill-opacity:1;stroke-width:0.264583"
         id="path4222-1" />
      <path
         d="m 194.38763,55.819511 v 15.692421 h 2.37711 q 4.06522,0 6.20118,-2.015383 2.15319,-2.015382 2.15319,-5.856666 0,-3.824058 -2.13596,-5.822215 -2.13596,-1.998157 -6.21841,-1.998157 z m -6.63182,-5.012617 h 6.99355 q 5.85667,0 8.7161,0.844049 2.87666,0.826823 4.92649,2.82498 1.80868,1.739774 2.68718,4.013539 0.8785,2.273764 0.8785,5.150421 0,2.911108 -0.8785,5.202098 -0.8785,2.273764 -2.68718,4.013539 -2.06706,1.998156 -4.96094,2.842205 -2.89388,0.826824 -8.68165,0.826824 h -6.99355 z"
         style="font-style:normal;font-variant:normal;font-weight:bold;font-stretch:normal;font-size:35.2778px;line-height:1.25;font-family:'DejaVu Sans';-inkscape-font-specification:'DejaVu Sans Bold';letter-spacing:0px;word-spacing:0px;fill:#344a9a;fill-opacity:1;stroke-width:0.264583"
         id="path4224-1" />
      <g
         aria-label="dc"
         id="text4102-2-9"
         style="font-style:italic;font-variant:normal;font-weight:normal;font-stretch:normal;font-size:36.8632px;line-height:1.25;font-family:'Lobster Two';-inkscape-font-specification:'Lobster Two Italic';letter-spacing:0px;word-spacing:0px;fill:#344a9a;fill-opacity:1;stroke-width:0.276473"
         transform="translate(-377.44483,73.67542)" />
    </g>
  </g>
</svg>
