<?xml version="1.0" encoding="UTF-8" standalone="no"?>
<svg
   xmlns:dc="http://purl.org/dc/elements/1.1/"
   xmlns:cc="http://creativecommons.org/ns#"
   xmlns:rdf="http://www.w3.org/1999/02/22-rdf-syntax-ns#"
   xmlns:svg="http://www.w3.org/2000/svg"
   xmlns="http://www.w3.org/2000/svg"
   xmlns:xlink="http://www.w3.org/1999/xlink"
   xmlns:sodipodi="http://sodipodi.sourceforge.net/DTD/sodipodi-0.dtd"
   xmlns:inkscape="http://www.inkscape.org/namespaces/inkscape"
   width="86.44014mm"
   height="86.44014mm"
   viewBox="0 0 86.44014 86.440139"
   version="1.1"
   id="svg880"
   inkscape:version="1.0.2 (e86c870879, 2021-01-15)"
   sodipodi:docname="dctmd_icon.svg"
   inkscape:export-filename="/home/mj1066/code_projects/dcTMD/docs/dctmd_icon.png"
   inkscape:export-xdpi="57.593616"
   inkscape:export-ydpi="57.593616">
  <defs
     id="defs874">
    <linearGradient
       inkscape:collect="always"
       xlink:href="#linearGradient3971"
       id="linearGradient3973"
       x1="373.8082"
       y1="20.332703"
       x2="382.81131"
       y2="-2.5891998"
       gradientUnits="userSpaceOnUse"
       gradientTransform="translate(-293.48245,63.224249)" />
    <linearGradient
       inkscape:collect="always"
       id="linearGradient3971">
      <stop
         style="stop-color:#f5c2ed;stop-opacity:1"
         offset="0"
         id="stop3967" />
      <stop
         style="stop-color:#344a9a;stop-opacity:1"
         offset="1"
         id="stop3969" />
    </linearGradient>
  </defs>
  <sodipodi:namedview
     id="base"
     pagecolor="#ffffff"
     bordercolor="#666666"
     borderopacity="1.0"
     inkscape:pageopacity="0.0"
     inkscape:pageshadow="2"
     inkscape:zoom="0.35"
     inkscape:cx="119.06574"
     inkscape:cy="398.24255"
     inkscape:document-units="mm"
     inkscape:current-layer="layer1"
     inkscape:document-rotation="0"
     showgrid="false"
     inkscape:window-width="1920"
     inkscape:window-height="1016"
     inkscape:window-x="1920"
     inkscape:window-y="27"
     inkscape:window-maximized="1" />
  <metadata
     id="metadata877">
    <rdf:RDF>
      <cc:Work
         rdf:about="">
        <dc:format>image/svg+xml</dc:format>
        <dc:type
           rdf:resource="http://purl.org/dc/dcmitype/StillImage" />
        <dc:title></dc:title>
      </cc:Work>
    </rdf:RDF>
  </metadata>
  <g
     inkscape:label="Layer 1"
     inkscape:groupmode="layer"
     id="layer1"
     transform="translate(-62.61326,-42.798327)">
    <g
       id="g1491"
       transform="translate(0,8.1553017)">
      <path
         id="rect1803-8"
         style="fill:#f5c2ed;fill-opacity:0.6;stroke:none;stroke-width:0.2;stroke-linecap:round;stroke-linejoin:round;stroke-miterlimit:4;stroke-dasharray:none;stroke-opacity:1"
         d="m 67.99223,60.953931 61.72197,0.54181 -5.44912,13.37651 h -55 z"
         sodipodi:nodetypes="ccccc" />
      <path
         id="rect1806-7"
         style="fill:#f5c2ed;fill-opacity:0.2;stroke:none;stroke-width:0.2;stroke-linecap:round;stroke-linejoin:round;stroke-miterlimit:4;stroke-dasharray:none;stroke-opacity:1"
         d="m 67.59594,46.552621 h 62.11826 v 14.94312 l -61.72195,-0.54181 z"
         sodipodi:nodetypes="ccccc" />
      <path
         style="fill:url(#linearGradient3973);fill-opacity:1;stroke:none;stroke-width:0.806618;stroke-linecap:butt;stroke-linejoin:miter;stroke-miterlimit:4;stroke-dasharray:none;stroke-opacity:1"
         d="M 79.32576,90.712253 C 79.42336,72.742103 99.046,26.735061 141.59049,68.159417 l 3.47088,-3.962671 3.99203,14.507699 -14.31792,-3.068427 2.6401,-3.333559 C 99.31906,33.840353 85.61986,75.345816 83.1334,94.270168 Z"
         id="path1614-2-7-3-0-9"
         sodipodi:nodetypes="cccccccc" />
      <path
         style="fill:#344a9a;fill-opacity:1;stroke:none;stroke-width:0.656541;stroke-linecap:butt;stroke-linejoin:miter;stroke-miterlimit:4;stroke-dasharray:none;stroke-opacity:1"
         d="m 130.17801,67.885074 c -2.37276,11.32208 -5.04529,22.347667 -11.75877,27.439407 -1.74369,1.32248 -4.69883,1.14249 -6.56541,0 -5.39179,-3.30019 -10.20563,-14.86853 -12.28345,-15.64465 -0.50881,-0.19007 -0.78798,-0.2785 -1.57783,-0.0322 -4.07149,1.26975 -6.182,25.950549 -12.40036,32.090239 -1.55729,1.5376 -5.11066,1.63497 -6.56541,0 C 62.23263,92.863101 62.79071,42.369891 62.61326,42.801071 h 6.56541 c 0,0 1.87164,50.68514 11.72268,57.640239 0.70105,0.49497 1.82506,1.07852 2.60563,0.64168 4.62836,-2.590209 3.30656,-22.978879 11.93333,-28.737569 1.59728,-1.06625 4.0405,-1.18667 5.7614,0 5.02776,3.46696 7.19512,12.27685 11.43461,13.85545 0.49326,0.18367 0.84609,0.1669 1.21312,-0.003 5.34996,-2.47404 9.02426,-13.348161 11.15917,-22.064251 z m -3.36893,-13.195255 c 1.26403,-8.13663 1.45828,-11.888718 1.45828,-11.888718 l 6.56541,1.1e-4 c 0,0 -1.1272,6.978635 -2.33459,15.351815 z"
         id="path1673-9-6-2"
         sodipodi:nodetypes="cssssssccssasssccccccc" />
    </g>
  </g>
</svg>
